<svg width="16" height="21" viewBox="0 0 16 21" fill="none" xmlns="http://www.w3.org/2000/svg">
<path d="M1.14286 18.6667C1.14286 19.95 2.17143 21 3.42857 21H12.5714C13.8286 21 14.8571 19.95 14.8571 18.6667V7C14.8571 5.71667 13.8286 4.66667 12.5714 4.66667H3.42857C2.17143 4.66667 1.14286 5.71667 1.14286 7V18.6667ZM4.76571 9.53167C5.21143 9.07667 5.93143 9.07667 6.37714 9.53167L8 11.1883L9.62286 9.53167C10.0686 9.07667 10.7886 9.07667 11.2343 9.53167C11.68 9.98667 11.68 10.7217 11.2343 11.1767L9.61143 12.8333L11.2343 14.49C11.68 14.945 11.68 15.68 11.2343 16.135C10.7886 16.59 10.0686 16.59 9.62286 16.135L8 14.4783L6.37714 16.135C5.93143 16.59 5.21143 16.59 4.76571 16.135C4.32 15.68 4.32 14.945 4.76571 14.49L6.38857 12.8333L4.76571 11.1767C4.32 10.7333 4.32 9.98667 4.76571 9.53167ZM12 1.16667L11.1886 0.338333C10.9829 0.128333 10.6857 0 10.3886 0H5.61143C5.31429 0 5.01714 0.128333 4.81143 0.338333L4 1.16667H1.14286C0.514286 1.16667 0 1.69167 0 2.33333C0 2.975 0.514286 3.5 1.14286 3.5H14.8571C15.4857 3.5 16 2.975 16 2.33333C16 1.69167 15.4857 1.16667 14.8571 1.16667H12Z" fill="#FE5F55"/>
</svg>
