<svg width="24" height="24" viewBox="0 0 24 24" fill="none" xmlns="http://www.w3.org/2000/svg">
<path d="M21.0175 0.340897C20.8005 0.123939 20.4984 0 20.1963 0C19.8864 0 19.592 0.123939 19.3751 0.340897L10.4894 9.21967C10.2879 9.42112 10.1718 9.69232 10.1562 9.97897L10.0013 12.7759C9.98579 13.1013 10.1098 13.4266 10.3422 13.6591C10.5591 13.876 10.8535 14 11.1633 14H11.2253L14.022 13.845C14.3008 13.8295 14.572 13.7056 14.7734 13.5042L23.6591 4.63308C23.8761 4.40841 24 4.114 24 3.81183C24 3.50191 23.8761 3.20753 23.6591 2.98282L21.0175 0.340897Z" fill="#FE5F55"/>
<path d="M3.9738 24H17.0262C19.2177 24 21 22.2173 21 20.0262V11.9801C21 11.33 20.4728 10.8032 19.823 10.8032C19.1733 10.8032 18.6461 11.33 18.6461 11.9801V20.0262C18.6461 20.9193 17.9197 21.6461 17.0262 21.6461H3.9738C3.08035 21.6461 2.35394 20.9193 2.35394 20.0262V6.9738C2.35394 6.08073 3.08035 5.35394 3.9738 5.35394H12.0202C12.67 5.35394 13.1972 4.82713 13.1972 4.17697C13.1972 3.5268 12.67 3 12.0202 3H3.9738C1.78231 3 0 4.78269 0 6.9738V20.0262C0 22.2173 1.78231 24 3.9738 24Z" fill="#FE5F55"/>
</svg>
